<svg width="100px" height="26px" viewBox="0 0 600 153" version="1.1" xmlns="http://www.w3.org/2000/svg" xmlns:xlink="http://www.w3.org/1999/xlink">
    <!-- Generator: Sketch 46.2 (44496) - http://www.bohemiancoding.com/sketch -->
    <desc>Created with Sketch.</desc>
    <defs></defs>
    <g id="Page-1" stroke="none" stroke-width="1" fill="none" fill-rule="evenodd">
        <g id="Agate-brand-guidelines_v1-Oct-2017">
            <g id="agateposter">
                <path d="M120.7402,98.5964 C120.7402,106.2604 114.5252,112.4754 106.8592,112.4754 C99.1922,112.4754 92.9772,106.2604 92.9772,98.5964 C92.9772,90.9284 99.1922,84.7134 106.8592,84.7134 C114.5252,84.7134 120.7402,90.9284 120.7402,98.5964" id="Fill-1" fill="#3CAF78"></path>
                <path d="M49.8677,87.4714 L30.1997,87.4714 L58.5677,35.1814 L86.1547,86.0284 C90.3497,79.6174 97.4767,75.3284 105.6357,75.0264 L68.3987,6.3884 C66.4417,2.7834 62.6687,0.5364 58.5677,0.5364 C54.4637,0.5364 50.6887,2.7834 48.7367,6.3884 L1.5757,93.3264 C-0.3053,96.7914 -0.2233,100.9914 1.7927,104.3784 C3.8117,107.7704 7.4647,109.8454 11.4057,109.8454 L49.8677,109.8454 C56.0447,109.8454 61.0537,104.8364 61.0537,98.6594 C61.0537,92.4814 56.0447,87.4714 49.8677,87.4714" id="Fill-3" fill="#29323E"></path>
                <path d="M212.0371,56.4323 C207.4351,50.2943 200.1031,46.2003 191.5831,46.2003 C178.6291,46.2003 170.2741,56.9393 170.2741,68.8753 C170.2741,81.8303 179.6511,91.3773 192.0941,91.3773 C200.4481,91.3773 207.7761,87.2863 212.0371,81.1473 L212.0371,56.4323 Z M234.1991,110.1263 L212.8901,110.1263 L212.8901,103.4813 C206.0731,109.2753 198.2331,111.8323 189.8781,111.8323 C177.6041,111.8323 166.0121,106.3793 158.6801,97.8553 C152.2031,90.3523 148.1141,80.1273 148.1141,68.8753 C148.1141,44.4973 166.1821,25.7463 188.6851,25.7463 C198.0581,25.7463 206.4121,28.8123 212.8901,34.0993 L212.8901,27.4503 L234.1991,27.4503 L234.1991,110.1263 Z" id="Fill-5" fill="#29323E"></path>
                <path d="M311.752,56.4323 C307.149,50.2943 299.818,46.2003 291.296,46.2003 C278.339,46.2003 269.989,56.9393 269.989,68.8753 C269.989,81.8303 279.363,91.3773 291.809,91.3773 C300.16,91.3773 307.49,87.2863 311.752,81.1473 L311.752,56.4323 Z M333.911,105.5253 C333.911,120.3543 331.356,129.2173 326.41,136.2093 C318.909,146.6053 305.614,152.7433 289.762,152.7433 C273.568,152.7433 258.227,145.2433 250.042,135.6963 L264.021,121.2063 C268.451,125.9833 276.124,133.1393 289.762,133.1393 C296.919,133.1393 302.888,130.9233 306.636,126.4943 C310.045,122.7453 311.752,117.6293 311.752,107.0593 L311.752,104.3333 C305.105,109.4433 297.943,111.8323 289.59,111.8323 C277.315,111.8323 265.552,106.3793 258.227,97.8553 C251.748,90.3523 247.825,80.1273 247.825,68.8753 C247.825,44.4973 265.897,25.7463 288.398,25.7463 C297.773,25.7463 306.127,28.8123 312.604,34.0993 L312.604,27.4503 L333.911,27.4503 L333.911,105.5253 Z" id="Fill-7" fill="#29323E"></path>
                <path d="M411.4619,56.4323 C406.8599,50.2943 399.5279,46.2003 391.0079,46.2003 C378.0539,46.2003 369.7009,56.9393 369.7009,68.8753 C369.7009,81.8303 379.0759,91.3773 391.5209,91.3773 C399.8739,91.3773 407.2009,87.2863 411.4619,81.1473 L411.4619,56.4323 Z M433.6249,110.1263 L412.3159,110.1263 L412.3159,103.4813 C405.4989,109.2753 397.6579,111.8323 389.3049,111.8323 C377.0289,111.8323 365.4379,106.3793 358.1069,97.8553 C351.6279,90.3523 347.5399,80.1273 347.5399,68.8753 C347.5399,44.4973 365.6079,25.7463 388.1109,25.7463 C397.4829,25.7463 405.8379,28.8123 412.3159,34.0993 L412.3159,27.4503 L433.6249,27.4503 L433.6249,110.1263 Z" id="Fill-9" fill="#29323E"></path>
                <path d="M512.7373,110.1277 C509.8413,111.1487 503.1953,111.8347 498.9323,111.8347 C485.6343,111.8347 475.9193,107.3987 470.2953,99.9007 C466.0313,94.2727 464.1573,86.9437 464.1573,75.1817 L464.1573,46.2017 L444.6953,46.2017 L444.6953,27.4497 L464.1573,27.4497 L464.1573,4.4367 L486.3133,4.4367 L486.3133,27.4497 L513.5903,27.4497 L513.5903,46.2017 L486.3133,46.2017 L486.3133,77.7387 C486.3133,82.8547 487.1703,85.9217 489.0443,88.1377 C491.2583,90.6937 494.8413,92.2317 500.2933,92.2317 C503.5323,92.2317 507.7973,91.7177 509.3273,91.3757 L512.7373,110.1277 Z" id="Fill-11" fill="#29323E"></path>
                <path d="M576.998,58.135 C576.312,50.807 569.665,43.646 560.631,43.646 C551.429,43.646 543.929,50.632 542.904,58.135 L576.998,58.135 Z M597.623,97.003 C589.612,106.55 576.487,111.833 563.701,111.833 C538.982,111.833 520.401,94.787 520.401,68.875 C520.401,45.863 536.087,25.747 560.631,25.747 C583.474,25.747 599.67,45.007 599.67,68.02 C599.67,70.236 599.501,72.451 599.154,74.329 L541.882,74.329 C543.074,85.922 552.452,93.933 564.211,93.933 C573.587,93.933 581.089,88.649 585.009,84.384 L597.623,97.003 Z" id="Fill-13" fill="#29323E"></path>
            </g>
        </g>
    </g>
</svg>
