<?xml version="1.0" encoding="UTF-8"?>
<svg width="100px" height="20px" viewBox="0 0 100 20" version="1.1" xmlns="http://www.w3.org/2000/svg" xmlns:xlink="http://www.w3.org/1999/xlink">
    <!-- Generator: Sketch 55.2 (78181) - https://sketchapp.com -->
    <title>axate-logo-linear_reversedreendot_cmyk 2</title>
    <desc>Created with Sketch.</desc>
    <g id="Page-1" stroke="none" stroke-width="1" fill="none" fill-rule="evenodd">
        <g id="axate-logo-linear_reversedreendot_cmyk-2">
            <g id="axate-logo-linear_reversedreendot_cmyk">
                <path d="M21.1828784,17.2735802 C21.1828784,18.6061728 20.0972705,19.6861728 18.7583127,19.6861728 C17.4191067,19.6861728 16.3334988,18.6061728 16.3334988,17.2735802 C16.3334988,15.9409877 17.4191067,14.8609877 18.7583127,14.8609877 C20.0972705,14.8609877 21.1828784,15.9409877 21.1828784,17.2735802" id="Fill-1" fill="#00A985"></path>
                <path d="M8.80347395,15.3402469 L5.36799007,15.3402469 L10.3230769,6.25135802 L15.1419355,15.0893827 C15.8744417,13.9755556 17.119603,13.2296296 18.544665,13.1775309 L12.0404467,1.24740741 C11.6985112,0.620493827 11.0397022,0.230123457 10.3230769,0.230123457 C9.60645161,0.230123457 8.9471464,0.620493827 8.6057072,1.24740741 L0.367990074,16.3577778 C0.0394540943,16.9602469 0.0538461538,17.6901235 0.406203474,18.2790123 C0.758560794,18.8681481 1.39652605,19.2288889 2.08511166,19.2288889 L8.80347395,19.2288889 C9.88238213,19.2288889 10.7573201,18.3585185 10.7573201,17.2846914 C10.7573201,16.2108642 9.88238213,15.3402469 8.80347395,15.3402469" id="Fill-2" fill="#000000"></path>
                <path d="M37.0543424,9.94666667 C36.2548387,8.88641975 34.9823821,8.17950617 33.5024814,8.17950617 C31.2526055,8.17950617 29.8024814,10.0350617 29.8024814,12.0965432 C29.8024814,14.3353086 31.4305211,15.9844444 33.591067,15.9844444 C35.0411911,15.9844444 36.3141439,15.2777778 37.0543424,14.217284 L37.0543424,9.94666667 Z M40.9019851,19.2241975 L37.2019851,19.2241975 L37.2019851,18.0758025 C36.0181141,19.077037 34.6568238,19.5187654 33.2062035,19.5187654 C31.0751861,19.5187654 29.062531,18.5762963 27.7898263,17.1037037 C26.6647643,15.8079012 25.9545906,14.0404938 25.9545906,12.0965432 C25.9545906,7.88493827 29.0920596,4.64518519 32.9990074,4.64518519 C34.6270471,4.64518519 36.0774194,5.17530864 37.2019851,6.08839506 L37.2019851,4.93950617 L40.9019851,4.93950617 L40.9019851,19.2241975 L40.9019851,19.2241975 Z" id="Fill-3" fill="#000000"></path>
                <polyline id="Fill-4" fill="#000000" points="49.8513648 9.00419753 52.692804 4.93950617 57.1029777 4.93950617 52.2784119 11.5960494 57.783871 19.2241975 53.2255583 19.2241975 49.8513648 14.3940741 46.4769231 19.2241975 41.9188586 19.2241975 47.4243176 11.5960494 42.5995037 4.93950617 47.0099256 4.93950617 49.8513648 9.00419753"></polyline>
                <path d="M67.7282878,9.94666667 C66.9292804,8.88641975 65.6565757,8.17950617 64.1764268,8.17950617 C61.9270471,8.17950617 60.4769231,10.0350617 60.4769231,12.0965432 C60.4769231,14.3353086 62.1047146,15.9844444 64.2655087,15.9844444 C65.7158809,15.9844444 66.9885856,15.2777778 67.7282878,14.217284 L67.7282878,9.94666667 Z M71.5764268,19.2241975 L67.8764268,19.2241975 L67.8764268,18.0758025 C66.6925558,19.077037 65.3310174,19.5187654 63.8806452,19.5187654 C61.7496278,19.5187654 59.7367246,18.5762963 58.4640199,17.1037037 C57.339206,15.8079012 56.6287841,14.0404938 56.6287841,12.0965432 C56.6287841,7.88493827 59.7662531,4.64518519 63.6734491,4.64518519 C65.3014888,4.64518519 66.751861,5.17530864 67.8764268,6.08839506 L67.8764268,4.93950617 L71.5764268,4.93950617 L71.5764268,19.2241975 L71.5764268,19.2241975 Z" id="Fill-5" fill="#000000"></path>
                <path d="M95.9163772,10.2412346 C95.7980149,8.97481481 94.6436725,7.73777778 93.074938,7.73777778 C91.4766749,7.73777778 90.1741935,8.94518519 89.9967742,10.2412346 L95.9163772,10.2412346 Z M99.4980149,16.9562963 C98.1069479,18.605679 95.8277916,19.5187654 93.6076923,19.5187654 C89.3158809,19.5187654 86.0895782,16.5735802 86.0895782,12.0965432 C86.0895782,8.12049383 88.8126551,4.64518519 93.074938,4.64518519 C97.0411911,4.64518519 99.8531017,7.97358025 99.8531017,11.9496296 C99.8531017,12.3323457 99.8235732,12.7153086 99.764268,13.0392593 L89.8191067,13.0392593 C90.0263027,15.0419753 91.6540943,16.4261728 93.6965261,16.4261728 C95.3243176,16.4261728 96.626799,15.5133333 97.3074442,14.777037 L99.4980149,16.9562963 L99.4980149,16.9562963 Z" id="Fill-6" fill="#000000"></path>
                <path d="M85.1947891,19.2780247 C84.6890819,19.4558025 83.5277916,19.5745679 82.7833747,19.5745679 C80.4610422,19.5745679 78.7635236,18.8034568 77.7811414,17.5004938 C77.0367246,16.5222222 76.708933,15.248642 76.708933,13.2041975 L76.708933,8.16691358 L73.3096774,8.16691358 L73.3096774,4.90790123 L76.708933,4.90790123 L76.708933,0.907901235 L80.5796526,0.907901235 L80.5796526,4.90790123 L85.3439206,4.90790123 L85.3439206,8.16691358 L80.5796526,8.16691358 L80.5796526,13.6481481 C80.5796526,14.537284 80.7287841,15.0708642 81.0563275,15.4558025 C81.4434243,15.9002469 82.0684864,16.1671605 83.02134,16.1671605 C83.5870968,16.1671605 84.3315136,16.0780247 84.5995037,16.0190123 L85.1947891,19.2780247" id="Fill-7" fill="#000000"></path>
            </g>
        </g>
    </g>
</svg>