<?xml version="1.0" encoding="UTF-8"?>
<svg width="81px" height="16px" viewBox="0 0 81 16" version="1.1" xmlns="http://www.w3.org/2000/svg" xmlns:xlink="http://www.w3.org/1999/xlink">
    <!-- Generator: Sketch 56.2 (81672) - https://sketch.com -->
    <title>axate-logo-linear_reversedreendot_cmyk</title>
    <desc>Created with Sketch.</desc>
    <g id="Page-1" stroke="none" stroke-width="1" fill="none" fill-rule="evenodd">
        <g id="Agate_Wallet_Front" transform="translate(-90.000000, -20.000000)">
            <g id="Group-4" transform="translate(-1.000000, 0.000000)">
                <g id="axate-logo-linear_reversedreendot_cmyk" transform="translate(91.000000, 20.000000)">
                    <path d="M17.1581315,13.9916 C17.1581315,15.071 16.2787891,15.9458 15.1942333,15.9458 C14.1094764,15.9458 13.230134,15.071 13.230134,13.9916 C13.230134,12.9122 14.1094764,12.0374 15.1942333,12.0374 C16.2787891,12.0374 17.1581315,12.9122 17.1581315,13.9916" id="Fill-1" fill="#00A985"></path>
                    <path d="M7.1308139,12.4256 L4.34807196,12.4256 L8.36169231,5.0636 L12.2649677,12.2224 C12.8582978,11.3202 13.8668784,10.716 15.0211787,10.6738 L9.75276179,1.0104 C9.47579404,0.5026 8.94215881,0.1864 8.36169231,0.1864 C7.78122581,0.1864 7.24718859,0.5026 6.97062283,1.0104 L0.29807196,13.2498 C0.0319578164,13.7378 0.0436153846,14.329 0.329024814,14.806 C0.614434243,15.2832 1.1311861,15.5754 1.68894045,15.5754 L7.1308139,15.5754 C8.00472953,15.5754 8.71342928,14.8704 8.71342928,14.0006 C8.71342928,13.1308 8.00472953,12.4256 7.1308139,12.4256" id="Fill-2" fill="#FFFFFE"></path>
                    <path d="M30.0140174,8.0568 C29.3664194,7.198 28.3357295,6.6254 27.1370099,6.6254 C25.3146104,6.6254 24.1400099,8.1284 24.1400099,9.7982 C24.1400099,11.6116 25.4587221,12.9474 27.2087643,12.9474 C28.3833648,12.9474 29.4144566,12.375 30.0140174,11.516 L30.0140174,8.0568 Z M33.1306079,15.5716 L30.1336079,15.5716 L30.1336079,14.6414 C29.1746725,15.4524 28.0720273,15.8102 26.8970248,15.8102 C25.1709007,15.8102 23.5406501,15.0468 22.5097593,13.854 C21.5984591,12.8044 21.0232184,11.3728 21.0232184,9.7982 C21.0232184,6.3868 23.5645682,3.7626 26.729196,3.7626 C28.0479082,3.7626 29.2227097,4.192 30.1336079,4.9316 L30.1336079,4.001 L33.1306079,4.001 L33.1306079,15.5716 L33.1306079,15.5716 Z" id="Fill-3" fill="#FFFFFE"></path>
                    <polyline id="Fill-4" fill="#FFFFFE" points="40.3796055 7.2934 42.6811712 4.001 46.2534119 4.001 42.3455136 9.3928 46.8049355 15.5716 43.1127022 15.5716 40.3796055 11.6592 37.6463077 15.5716 33.9542754 15.5716 38.4136973 9.3928 34.505598 4.001 38.0780397 4.001 40.3796055 7.2934"></polyline>
                    <path d="M54.8599132,8.0568 C54.2127171,7.198 53.1818263,6.6254 51.9829057,6.6254 C50.1609082,6.6254 48.9863077,8.1284 48.9863077,9.7982 C48.9863077,11.6116 50.3048189,12.9474 52.055062,12.9474 C53.2298635,12.9474 54.2607543,12.375 54.8599132,11.516 L54.8599132,8.0568 Z M57.9769057,15.5716 L54.9799057,15.5716 L54.9799057,14.6414 C54.0209702,15.4524 52.9181241,15.8102 51.7433226,15.8102 C50.0171985,15.8102 48.3867469,15.0468 47.3558561,13.854 C46.4447568,12.8044 45.8693151,11.3728 45.8693151,9.7982 C45.8693151,6.3868 48.410665,3.7626 51.5754938,3.7626 C52.894206,3.7626 54.0690074,4.192 54.9799057,4.9316 L54.9799057,4.001 L57.9769057,4.001 L57.9769057,15.5716 L57.9769057,15.5716 Z" id="Fill-5" fill="#FFFFFE"></path>
                    <path d="M77.6922655,8.2954 C77.5963921,7.2696 76.6613747,6.2676 75.3906998,6.2676 C74.0961067,6.2676 73.0410968,7.2456 72.8973871,8.2954 L77.6922655,8.2954 Z M80.5933921,13.7346 C79.4666278,15.0706 77.6205112,15.8102 75.8222308,15.8102 C72.3458635,15.8102 69.7325583,13.4246 69.7325583,9.7982 C69.7325583,6.5776 71.9382506,3.7626 75.3906998,3.7626 C78.6033648,3.7626 80.8810124,6.4586 80.8810124,9.6792 C80.8810124,9.9892 80.8570943,10.2994 80.8090571,10.5618 L72.7534764,10.5618 C72.9213052,12.184 74.2398164,13.3052 75.8941861,13.3052 C77.2126973,13.3052 78.2677072,12.5658 78.8190298,11.9694 L80.5933921,13.7346 L80.5933921,13.7346 Z" id="Fill-6" fill="#FFFFFE"></path>
                    <path d="M69.0077792,15.6152 C68.5981563,15.7592 67.6575112,15.8554 67.0545335,15.8554 C65.1734442,15.8554 63.7984541,15.2308 63.0027246,14.1754 C62.3997469,13.383 62.1342357,12.3514 62.1342357,10.6954 L62.1342357,6.6152 L59.3808387,6.6152 L59.3808387,3.9754 L62.1342357,3.9754 L62.1342357,0.7354 L65.2695186,0.7354 L65.2695186,3.9754 L69.1285757,3.9754 L69.1285757,6.6152 L65.2695186,6.6152 L65.2695186,11.055 C65.2695186,11.7752 65.3903151,12.2074 65.6556253,12.5192 C65.9691737,12.8792 66.4754739,13.0954 67.2472854,13.0954 C67.7055484,13.0954 68.3085261,13.0232 68.525598,12.9754 L69.0077792,15.6152" id="Fill-7" fill="#FFFFFE"></path>
                </g>
            </g>
        </g>
    </g>
</svg>